<svg width="27" height="24" viewBox="0 0 27 24" fill="none" xmlns="http://www.w3.org/2000/svg">
<path d="M17.6667 18.2354C22.5759 18.2354 26.5556 14.2557 26.5556 9.34653C26.5556 4.43733 22.5759 0.457642 17.6667 0.457642C12.7575 0.457642 8.77783 4.43733 8.77783 9.34653C8.77783 14.2557 12.7575 18.2354 17.6667 18.2354Z" fill="#1AD5FE"/>
<path d="M1 7.21348V21.5902C1 22.1425 1.44772 22.5902 2 22.5902H20.9363" stroke="#363F41" stroke-width="2" stroke-linecap="round"/>
<path fill-rule="evenodd" clip-rule="evenodd" d="M8.3809 11.5688C8.95072 11.5688 9.41264 12.0307 9.41264 12.6005V19.4259C9.41264 19.9957 8.95072 20.4576 8.3809 20.4576C7.81108 20.4576 7.34915 19.9957 7.34915 19.4259V12.6005C7.34915 12.0307 7.81108 11.5688 8.3809 11.5688ZM12.5079 13.791C13.0777 13.791 13.5396 14.2529 13.5396 14.8228V19.4259C13.5396 19.9957 13.0777 20.4576 12.5079 20.4576C11.9381 20.4576 11.4761 19.9957 11.4761 19.4259V14.8228C11.4761 14.2529 11.9381 13.791 12.5079 13.791ZM4.25391 16.0132C4.82373 16.0132 5.28566 16.4751 5.28566 17.045V19.4259C5.28566 19.9957 4.82373 20.4576 4.25391 20.4576C3.6841 20.4576 3.22217 19.9957 3.22217 19.4259V17.045C3.22217 16.4751 3.6841 16.0132 4.25391 16.0132ZM16.6349 8.23542C17.2047 8.23542 17.6666 8.69735 17.6666 9.26717V19.4258C17.6666 19.9957 17.2047 20.4576 16.6349 20.4576C16.065 20.4576 15.6031 19.9957 15.6031 19.4258V9.26717C15.6031 8.69735 16.065 8.23542 16.6349 8.23542Z" fill="#363F41"/>
</svg>
