<svg width="55" height="69" viewBox="0 0 55 69" fill="none" xmlns="http://www.w3.org/2000/svg">
<path d="M26.9376 19.4051C26.4998 19.4051 26.1632 19.2654 25.9245 18.9855C25.6858 18.7055 25.5692 18.298 25.5692 17.7595H23.1971C23.1971 18.7336 23.471 19.5168 24.0188 20.1113C24.5655 20.7059 25.3525 21.0567 26.3755 21.1651V22.5891H27.4915V21.1722C28.3737 21.0919 29.065 20.7938 29.5754 20.2895C30.0891 19.778 30.3432 19.1262 30.3432 18.3221C30.3432 17.848 30.2629 17.4399 30.1023 17.0978C29.9417 16.764 29.7239 16.4676 29.439 16.2146C29.1563 15.961 28.8225 15.7338 28.4336 15.5342C28.0525 15.3367 27.64 15.1415 27.1972 14.9562C26.7589 14.7703 26.4476 14.575 26.2463 14.3709C26.0488 14.1669 25.9504 13.8902 25.9504 13.5421C25.9504 13.1994 26.0356 12.9327 26.2072 12.7352C26.3794 12.5406 26.6197 12.4421 26.9305 12.4421C27.2775 12.4421 27.5454 12.5746 27.734 12.8381C27.9221 13.1015 28.0156 13.4761 28.0156 13.9711H30.3993C30.3993 13.0784 30.1535 12.3387 29.6612 11.7596C29.1684 11.1799 28.4947 10.8278 27.6328 10.6991V9.18335H26.5141V10.67C25.6215 10.7503 24.9026 11.0506 24.3713 11.5687C23.8329 12.0846 23.5678 12.7374 23.5678 13.5311C23.5678 14.0013 23.6426 14.4116 23.7927 14.7406C23.9418 15.0728 24.159 15.3709 24.4412 15.6228C24.7244 15.8758 25.0599 16.0996 25.4499 16.2921C25.8398 16.4868 26.2633 16.6749 26.7237 16.863C27.1851 17.0511 27.5091 17.2507 27.6917 17.4614C27.8754 17.677 27.9667 17.9652 27.9667 18.3365C27.9667 18.6703 27.8754 18.9326 27.6917 19.1273C27.5085 19.3094 27.2566 19.4051 26.9376 19.4051ZM49.2363 35.09C48.8419 34.0929 47.9432 33.1975 46.6496 32.8537C46.5589 31.9528 46.1315 31.1091 45.411 30.4936C44.2907 29.5284 42.6764 29.2699 40.9549 29.7929L40.7927 29.8502C40.5518 29.1621 40.1019 28.5527 39.4749 28.105C38.3633 27.3036 36.88 27.1249 35.28 27.6095L26.5757 30.6037C24.3488 29.5724 22.2384 28.6055 19.577 28.6055C16.1543 28.6055 11.8198 30.712 5.93974 34.1116C5.54484 34.3398 5.41009 34.8441 5.63779 35.2385C5.86604 35.6334 6.37039 35.7681 6.76474 35.5399C12.2532 32.3675 16.5333 30.2577 19.577 30.2577C21.9029 30.2577 23.7773 31.1272 25.9482 32.1283C27.7016 32.9422 29.6953 33.8646 32.2616 34.4982C33.7851 34.8705 34.3819 36.0679 34.1982 37.0684C34.0183 38.0127 33.0723 38.913 30.9636 38.6243C29.2207 38.3834 27.9298 38.3361 26.7952 38.2921C24.9802 38.2261 23.548 38.1738 20.9905 37.3939C20.5582 37.2614 20.0929 37.5061 19.9603 37.9423C19.8278 38.3773 20.0731 38.8388 20.5092 38.9714C23.2708 39.8145 24.8751 39.8734 26.7314 39.941C27.8886 39.9823 29.0766 40.0257 30.7326 40.2561C31.0747 40.3035 31.3987 40.326 31.7067 40.3255C34.1014 40.3255 35.472 38.9675 35.7976 37.4566L44.2698 34.5395C46.1035 33.9812 47.3069 34.7154 47.6957 35.6961C48.0323 36.5513 47.7969 37.8598 46.0111 38.7332L43.3463 40.0449C33.6867 44.8002 29.2751 46.9744 26.8342 46.9744C24.9257 46.9744 21.9832 45.3315 19.6166 44.0099C17.13 42.6228 15.6681 41.844 14.6512 41.9832C13.1992 42.1877 9.67039 43.764 9.27714 43.9428C8.85969 44.1304 8.67104 44.6187 8.86299 45.0312C9.05164 45.4492 9.53894 45.6346 9.95144 45.4454C10.9711 44.9851 13.8498 43.7607 14.8849 43.6156C15.3898 43.5353 17.3753 44.6375 18.8152 45.4416C21.48 46.9282 24.5006 48.6156 26.8364 48.6156C29.6667 48.6156 33.8836 46.5382 44.0811 41.5173L46.7453 40.2083C49.3424 38.94 49.8561 36.6646 49.2363 35.09ZM32.2556 32.786C30.9609 32.4445 29.8268 32.0309 28.7834 31.5904L35.7965 29.1781C36.8624 28.8491 37.8249 28.9492 38.5195 29.4415C38.8545 29.6851 39.0987 30.0163 39.2263 30.3848L32.2556 32.786ZM43.766 32.972L35.7376 35.7335C35.5429 35.0091 35.1073 34.3167 34.4468 33.7739L41.4565 31.3621C42.5939 31.0162 43.6439 31.1548 44.3281 31.7433C44.6377 32.0067 44.8511 32.3515 44.9496 32.7332C44.5783 32.7723 44.184 32.846 43.766 32.972ZM26.7957 25.382C32.0323 25.382 36.2948 21.1211 36.2948 15.8829C36.2948 10.6463 32.0383 6.3844 26.7957 6.3844C21.5592 6.3844 17.2967 10.6452 17.2967 15.8829C17.2972 21.1211 21.5597 25.382 26.7957 25.382ZM26.7957 8.0344C31.1237 8.0344 34.6448 11.5544 34.6448 15.8834C34.6448 20.2064 31.127 23.7325 26.7957 23.7325C22.4683 23.7325 18.9467 20.2119 18.9467 15.8834C18.9472 11.5549 22.4683 8.0344 26.7957 8.0344Z" fill="#022B69"/>
</svg>
