<svg width="52" height="65" viewBox="0 0 52 65" fill="none" xmlns="http://www.w3.org/2000/svg">
<g clip-path="url(#clip0)">
<path d="M37.4401 23.7639H38.9481C39.6761 23.7639 40.2481 24.3359 40.2481 25.0639H41.9641C41.9641 23.4519 40.6641 22.0999 39.0521 22.0479V20.1759H37.3361V22.0479C35.7241 22.0999 34.4241 23.3999 34.4241 25.0639C34.4241 26.7279 35.7761 28.0799 37.4401 28.0799H38.9481C39.6761 28.0799 40.2481 28.6519 40.2481 29.3799C40.2481 30.1079 39.6761 30.6799 38.9481 30.6799H37.4401C36.7121 30.6799 36.1401 30.1079 36.1401 29.3799H34.4241C34.4241 30.9919 35.7241 32.3439 37.3361 32.3959V34.2679H39.0521V32.3959C40.6641 32.3439 41.9641 31.0439 41.9641 29.3799C41.9641 27.7159 40.6121 26.3639 38.9481 26.3639H37.4401C36.7121 26.3639 36.1401 25.7919 36.1401 25.0639C36.1401 24.3359 36.7121 23.7639 37.4401 23.7639Z" fill="white"/>
<path d="M50.5958 31.252C49.7118 25.324 47.7358 17.888 43.3158 14.872L45.1358 13.104C45.8638 12.428 46.0718 11.388 45.7078 10.452C45.3438 9.51597 44.4598 8.94397 43.4718 8.94397H32.9158C31.9278 8.94397 31.0438 9.51597 30.6798 10.452C30.3158 11.388 30.5238 12.376 31.2518 13.104L33.0718 14.872C30.8878 16.38 29.3278 18.928 28.1838 21.84C26.7278 21.164 24.6478 20.8 22.6198 20.8C18.8238 20.8 14.9758 22.048 14.9758 24.388V29.64C13.5198 28.808 11.2318 28.392 8.99581 28.392C5.19981 28.392 1.35181 29.64 1.35181 31.98V39.52C1.35181 41.86 5.19981 43.108 8.99581 43.108C11.7518 43.108 14.4558 42.484 15.8078 41.236C17.1598 42.484 19.9158 43.108 22.6198 43.108C26.4158 43.108 30.2638 41.86 30.2638 39.52V38.948C30.7838 39.156 31.3038 39.312 31.8238 39.364C33.8518 39.676 35.9838 39.78 38.1678 39.78C40.3518 39.78 42.5358 39.624 44.5118 39.364C46.4358 39.104 48.0998 38.116 49.2438 36.556C50.4398 34.996 50.9078 33.124 50.5958 31.252ZM32.3958 11.856C32.0838 11.544 32.1878 11.18 32.2398 11.076C32.2918 10.972 32.4478 10.608 32.9158 10.608H43.5238C43.9918 10.608 44.1478 10.972 44.1998 11.076C44.2518 11.18 44.3558 11.544 44.0438 11.856L41.5478 14.3C39.4158 15.028 37.0758 15.028 34.9438 14.3L32.3958 11.856ZM16.6398 34.216C18.0958 35.048 20.3838 35.464 22.6198 35.464C24.8558 35.464 27.0918 35.048 28.5998 34.216V35.672C28.5998 36.348 26.3118 37.544 22.6198 37.544C18.9278 37.544 16.6398 36.348 16.6398 35.724V34.216ZM22.6198 33.8C18.8758 33.8 16.6398 32.604 16.6398 31.928V30.472C18.0958 31.304 20.3838 31.72 22.6198 31.72C24.8558 31.72 27.0918 31.304 28.5998 30.472V31.928C28.5998 32.604 26.3118 33.8 22.6198 33.8ZM22.6198 22.464C26.3118 22.464 28.5998 23.66 28.5998 24.336C28.5998 25.012 26.3118 26.208 22.6198 26.208C18.9278 26.208 16.6398 25.012 16.6398 24.388C16.6398 23.764 18.8758 22.464 22.6198 22.464ZM16.6398 26.676C18.0958 27.508 20.3838 27.924 22.6198 27.924C24.8558 27.924 27.0918 27.508 28.5998 26.676V28.132C28.5998 28.808 26.3118 30.004 22.6198 30.004C18.9278 30.004 16.6398 28.808 16.6398 28.132V26.676ZM8.94381 30.056C12.6358 30.056 14.9238 31.252 14.9238 31.928C14.9238 32.604 12.6358 33.8 8.94381 33.8C5.25181 33.8 3.01581 32.604 3.01581 31.928C3.01581 31.252 5.25181 30.056 8.94381 30.056ZM3.01581 34.216C4.47181 35.048 6.75981 35.464 8.99581 35.464C11.2318 35.464 13.4678 35.048 14.9758 34.216V35.672C14.9758 36.348 12.6878 37.544 8.99581 37.544C5.30381 37.544 3.01581 36.348 3.01581 35.724V34.216ZM8.94381 41.34C5.25181 41.34 2.96381 40.144 2.96381 39.468V38.012C4.41981 38.844 6.70781 39.26 8.94381 39.26C11.1798 39.26 13.4158 38.844 14.9238 38.012V39.468C14.9238 40.144 12.6878 41.34 8.94381 41.34ZM22.6198 41.34C18.9278 41.34 16.6398 40.144 16.6398 39.468V38.012C18.0958 38.844 20.3838 39.26 22.6198 39.26C24.8558 39.26 27.0918 38.844 28.5998 38.012V39.468C28.5998 40.144 26.3118 41.34 22.6198 41.34ZM47.9438 35.516C47.0598 36.712 45.7598 37.44 44.3038 37.648C40.4558 38.22 35.9318 38.22 32.0838 37.648C31.4598 37.544 30.8358 37.336 30.2638 37.024V24.388C30.2638 23.816 30.0038 23.296 29.5878 22.828C30.7318 19.864 32.2918 17.212 34.5278 15.964C35.7238 16.328 36.9198 16.536 38.1678 16.536C39.4158 16.536 40.6638 16.328 41.8078 15.964C46.3318 18.46 48.2038 26.728 48.8798 31.512C49.1398 32.916 48.7758 34.372 47.9438 35.516Z" fill="white"/>
</g>
<defs>
<clipPath id="clip0">
<rect width="52" height="65" fill="white"/>
</clipPath>
</defs>
</svg>
