<svg width="18" height="15" viewBox="0 0 18 15" fill="none" xmlns="http://www.w3.org/2000/svg">
<path fill-rule="evenodd" clip-rule="evenodd" d="M4.38431 14.812C3.41525 14.812 2.48588 14.478 1.80065 13.8836C1.11543 13.2891 0.730469 12.4828 0.730469 11.6421C0.730469 10.4748 1.94811 6.77626 4.38431 0.547363H6.21123L4.38431 8.47217C5.35337 8.47217 6.28274 8.80614 6.96797 9.40062C7.6532 9.99509 8.03815 10.8014 8.03815 11.6421C8.03815 12.4828 7.6532 13.2891 6.96797 13.8836C6.28274 14.478 5.35337 14.812 4.38431 14.812ZM13.5189 14.812C12.5499 14.812 11.6205 14.478 10.9353 13.8836C10.25 13.2891 9.86508 12.4828 9.86508 11.6421C9.86508 10.4748 11.0827 6.77626 13.5189 0.547363H15.3458L13.5189 8.47217C14.488 8.47217 15.4173 8.80614 16.1026 9.40062C16.7878 9.99509 17.1728 10.8014 17.1728 11.6421C17.1728 12.4828 16.7878 13.2891 16.1026 13.8836C15.4173 14.478 14.488 14.812 13.5189 14.812Z" fill="#254094"/>
</svg>
