<svg width="20" height="19" viewBox="0 0 20 19" fill="none" xmlns="http://www.w3.org/2000/svg">
<path d="M10.0069 0.436523C4.67651 0.436523 0.354492 4.47277 0.354492 9.45067C0.354492 14.4286 4.67651 18.4648 10.0069 18.4648C15.3372 18.4648 19.6592 14.4286 19.6592 9.45067C19.6592 4.47277 15.3372 0.436523 10.0069 0.436523ZM14.6456 7.23134C14.652 7.32591 14.652 7.4245 14.652 7.52108C14.652 10.4748 12.2433 13.8773 7.84153 13.8773C6.48417 13.8773 5.22592 13.509 4.16588 12.8752C4.35979 12.8954 4.54508 12.9034 4.7433 12.9034C5.86366 12.9034 6.89353 12.5493 7.71442 11.9497C6.663 11.9296 5.77963 11.2857 5.478 10.4004C5.84643 10.4507 6.17823 10.4507 6.55743 10.3601C6.01604 10.2574 5.52944 9.98283 5.18028 9.58303C4.83111 9.18323 4.64093 8.68287 4.64204 8.16696V8.13879C4.95875 8.30579 5.33149 8.40841 5.72146 8.42249C5.39363 8.21846 5.12478 7.94203 4.93874 7.61772C4.7527 7.29341 4.65523 6.93124 4.65496 6.56332C4.65496 6.14682 4.77131 5.76654 4.9803 5.43656C5.58121 6.12738 6.33105 6.69238 7.18109 7.09485C8.03113 7.49731 8.96235 7.72823 9.91421 7.77259C9.57594 6.25346 10.7911 5.02408 12.2519 5.02408C12.9413 5.02408 13.5618 5.2937 13.9992 5.72831C14.54 5.63374 15.0571 5.4446 15.5182 5.19108C15.3393 5.70819 14.9645 6.14481 14.4668 6.42047C14.9494 6.37218 15.4148 6.24743 15.8457 6.07238C15.5203 6.51906 15.1131 6.91544 14.6456 7.23134Z" fill="#F4F8FC"/>
</svg>
